<svg xmlns="http://www.w3.org/2000/svg" width="24" height="24" viewBox="0 0 640 640" fill="currentColor">
<g transform="translate(0,640) scale(1,-1)">
<path d="M337 556 c10 -13 24 -32 31 -42 11 -17 12 -17 7 -1 -3 9 -8 25 -12 35 -6 15 -4 15 15 -2 28 -25 30 -76 3 -76 -10 0 -39 -12 -65 -26 -37 -20 -45 -30 -41 -45 8 -23 -13 -26 -22 -3 -8 23 13 65 31 58 11 -4 13 0 9 15 -6 23 6 28 25 9 7 -7 12 -8 12 -2 0 16 -54 64 -71 63 -7 0 -4 -4 9 -10 35 -13 24 -43 -18 -50 -22 -4 -26 -7 -12 -8 25 -1 26 -4 10 -31 -10 -15 -10 -27 1 -55 11 -31 11 -39 -2 -53 -8 -9 -17 -24 -20 -32 -3 -11 -8 -7 -16 13 -14 35 -14 63 -1 88 7 11 7 19 1 19 -5 0 -14 -24 -21 -52 -11 -55 -34 -98 -50 -98 -6 0 -11 21 -12 48 -1 43 -2 44 -5 9 -2 -20 -8 -35 -14 -32 -16 11 -10 72 10 96 l20 24 -5 -25 c-4 -25 -4 -25 5 -2 6 12 18 25 27 29 12 5 13 7 2 14 -7 5 -22 2 -35 -6 -21 -14 -22 -14 -11 15 11 33 41 55 64 46 9 -3 12 -1 9 4 -3 6 -13 10 -21 10 -11 0 -6 10 15 30 54 55 118 66 148 26z m110 -114 c10 -6 29 -30 42 -54 l25 -43 -55 55 c-39 39 -54 61 -51 74 5 19 6 18 13 -2 4 -11 16 -25 26 -30z m-52 8 c4 -6 1 -18 -6 -26 -22 -27 -28 -105 -11 -157 11 -34 13 -56 6 -75 -10 -27 -70 -75 -84 -67 -5 3 -18 -8 -30 -25 -29 -41 -44 -39 -37 6 5 32 4 34 -10 22 -15 -12 -16 -10 -9 14 3 16 3 28 -2 28 -4 0 -8 8 -9 18 0 9 -6 31 -13 48 -8 17 -10 39 -6 49 6 17 9 15 26 -13 23 -37 30 -41 23 -12 -5 20 34 90 50 90 12 0 8 -25 -8 -46 -8 -10 -15 -34 -15 -52 0 -20 -4 -31 -10 -27 -5 3 -10 -2 -10 -12 0 -11 -5 -24 -11 -30 -7 -7 -6 -12 3 -16 19 -7 84 55 92 89 9 34 17 118 9 89 -3 -11 -12 -27 -20 -36 -8 -10 -10 -19 -5 -20 13 -5 -9 -71 -25 -77 -16 -5 -17 40 -2 55 6 6 14 41 17 78 3 49 9 68 21 73 9 3 22 14 29 24 15 20 37 24 47 8z m38 -70 c-4 -16 -8 -18 -19 -9 -20 16 -17 29 5 29 14 0 18 -5 14 -20z m11 -65 c-33 -25 -50 -18 -24 10 16 17 27 22 34 15 7 -7 4 -15 -10 -25z m76 -33 c-18 -37 -24 -42 -55 -42 -18 0 -37 5 -41 11 -4 8 3 9 24 5 38 -9 67 16 52 44 -8 15 -6 21 7 29 29 16 34 -3 13 -47z m-348 -55 c5 -40 3 -46 -8 -36 -15 12 -18 46 -8 74 9 22 11 18 16 -38z m308 -10 c0 -5 -6 -14 -13 -22 -12 -11 -18 -10 -41 9 l-28 21 41 0 c23 0 41 -3 41 -8z M322 390 c0 -14 2 -19 5 -12 2 6 2 18 0 25 -3 6 -5 1 -5 -13z M307 161 c-4 -17 -3 -21 5 -13 5 5 8 16 6 23 -3 8 -7 3 -11 -10z"/>
</g>
</svg>
